<?xml version="1.0" encoding="utf-8"?>
<!-- Generator: Adobe Illustrator 15.0.0, SVG Export Plug-In . SVG Version: 6.00 Build 0)  -->
<!DOCTYPE svg PUBLIC "-//W3C//DTD SVG 1.1//EN" "http://www.w3.org/Graphics/SVG/1.1/DTD/svg11.dtd">
<svg version="1.1" id="Layer_1" xmlns="http://www.w3.org/2000/svg" xmlns:xlink="http://www.w3.org/1999/xlink" x="0px" y="0px"
	 width="595.28px" height="215.19px" viewBox="0 0 595.28 215.19" enable-background="new 0 0 595.28 215.19" xml:space="preserve">
<path fill="#FFFFFF" d="M185.581,123.947c-3.182,0.391-5.688,1.225-7.516,2.499c0.147,2.893,0.412,7.304,0.8,13.235
	c0.436,5.245,1.659,9.557,3.679,12.939c0.339,0.048,0.701,0.244,1.089,0.588c1.101-1.078,2.262-2.893,3.46-5.439h3.256
	c0.811,1.568,1.172,4.068,1.075,7.498c-2.999,2.94-5.493,4.411-7.478,4.411c-4.404,0-7.575-2.769-9.511-8.307
	c-1.017-2.942-1.839-7.991-2.47-15.147c-0.483-5.146-1.089-7.72-1.814-7.72c-0.436,0-1.064,0.258-1.887,0.773
	c-0.823,0.515-1.55,0.772-2.179,0.772h-5.01c-0.389-0.736-1.089-1.814-2.106-3.236c2.371-1.814,6.075-3.823,11.109-6.029
	c0.194-0.881,0.292-2.033,0.292-3.455c0-1.961-0.208-4.632-0.63-8.015c-0.509-3.824-0.8-6.47-0.895-7.941h0.653
	c-0.097-0.047-0.145-0.047-0.145,0l-0.219,0.075c0,0.099-0.095,0.072-0.289-0.075c0-0.097,0-0.316,0-0.66
	c0.194-3.971,0.095-6.764-0.292-8.382c1.453-1.421,2.906-2.133,4.357-2.133c1.792,0,3.123,0.737,3.993,2.206
	c0,0.737,0.219,4.805,0.653,12.205c0.292,5.146,0.436,9.559,0.436,13.234c0.147,0.196,0.267,0.54,0.364,1.03
	c0,0.05,0.291,0.072,0.87,0.072c0.823,0,2.506-0.391,5.048-1.175c2.54-0.784,4.271-1.178,5.191-1.178
	c2.373,0,4.065,0.98,5.082,2.942v3.161C193.581,122.894,190.591,123.309,185.581,123.947 M150.184,121.52
	c-0.823-3.431-2.298-7.058-4.429-10.881c-3.001-5.392-6.099-8.088-9.294-8.088c-3.921,0-6.558,1.715-7.914,5.148
	c-0.775,1.959-1.164,4.777-1.164,8.454c0,3.479,0.316,6.128,0.944,7.94h8.786c0.678,0,2.59-0.344,5.738-1.03
	C146.721,122.231,149.167,121.716,150.184,121.52z M158.097,127.183c-6.099,0.537-15.561,1.347-28.39,2.424v5.442
	c0,2.303,1.331,6.101,3.993,11.396c2.954,5.883,5.566,8.822,7.841,8.822c2.615,0,4.576-1.593,5.882-4.779
	c0.919-2.205,1.381-4.289,1.381-6.248c0.047,0,0.411-0.161,1.087-0.479c0.678-0.318,1.331-0.477,1.961-0.477
	c1.451,0,2.542,0.759,3.268,2.277c0.436,0.934,0.653,1.766,0.653,2.502c0,3.283-1.645,6.323-4.938,9.116
	c-2.856,2.452-5.421,3.677-7.697,3.677c-5.276,0-9.851-3.652-13.724-10.956c-2.565-4.804-4.646-10.783-6.244-17.94
	c-1.403-6.223-2.106-11.224-2.106-14.998c0-6.126,0.92-10.612,2.759-13.455c2.47-3.824,6.947-5.735,13.435-5.735
	c2.612,0,5.663,1.814,9.147,5.441c2.42,2.5,4.84,5.686,7.261,9.559c2.954,4.705,4.429,8.332,4.429,10.881V127.183z M118.888,158.282
	c-1.162,1.568-2.396,2.303-3.702,2.206c-4.407-0.244-6.607-6.079-6.607-17.498c0-2.599,0.12-6.483,0.364-11.653
	c0.239-5.171,0.361-9.056,0.361-11.654c0-7.206-0.822-11.961-2.47-14.264c-0.192-0.05-0.387-0.074-0.581-0.074
	c-2.515,0-5.421,2.673-8.711,8.016c-3.051,4.951-4.624,8.871-4.721,11.764c-0.097,3.431-0.145,6.861-0.145,10.294
	c0,3.233,0.097,6.738,0.29,10.513v6.763c0,1.865-0.12,3.162-0.362,3.898c-0.483,0-1.198,0.062-2.142,0.184
	c-0.945,0.122-1.659,0.183-2.143,0.183c-0.919,0-1.839-0.122-2.759-0.366c-0.339-0.784-0.483-2.817-0.436-6.104
	c0.194-10,0.292-17.204,0.292-21.615c0-3.773-0.63-9.533-1.889-17.278c-1.209-7.547-1.79-13.21-1.742-16.984h5.301
	c1.356,0.247,2.323,2.23,2.904,5.957c0.823,5.245,1.379,8.259,1.67,9.042c0.919-0.685,2.156-2.131,3.704-4.336
	c1.403-2.009,2.709-3.383,3.921-4.118c2.131-1.324,4.938-1.984,8.422-1.984c5.519,0,8.328,2.94,8.422,8.822l0.364,23.308
	C116.637,141.347,117.437,150.341,118.888,158.282z M71.981,134.387c-1.646-1.226-2.71-1.838-3.193-1.838
	c-1.647,0-4.14,0.784-7.48,2.353v3.162c1.695,0.734,2.759,1.103,3.195,1.103c1.5,0,3.073-0.394,4.721-1.178
	c1.887-0.881,2.832-1.911,2.832-3.087L71.981,134.387z M78.155,142.622c0,1.618,0.606,6.079,1.815,13.383
	c-1.064,1.125-2.082,1.689-3.049,1.689c-2.083,0-3.412-2.401-3.995-7.206c-0.145-2.156-0.506-5.023-1.089-8.601
	c-2.081,1.125-4.524,1.69-7.333,1.69c-1.937,0-4.235-0.54-6.899-1.618c-3.291-1.324-4.936-2.843-4.936-4.558
	c0-2.012,1.573-4.192,4.719-6.545c3.001-2.205,5.496-3.309,7.479-3.309c0.775,0,2.832,0.222,6.172,0.662
	c0.242-0.44,0.361-0.858,0.361-1.249c0-2.893-0.676-6.985-2.032-12.28c-1.355-5.145-2.734-9.141-4.14-11.983
	c-3.485,2.158-5.035,8.406-4.646,18.749c-0.484,0-2.082-0.221-4.793-0.662c0-0.49-0.12-1.188-0.362-2.095s-0.364-1.606-0.364-2.097
	c0-3.627,0.775-7.62,2.323-11.984c1.984-5.539,4.479-8.307,7.479-8.307c2.565,0,4.696,1.812,6.389,5.439
	c1.164,2.599,2.3,6.617,3.415,12.059c0.531,2.989,1.356,7.229,2.468,12.721c1.017,4.117,2.226,6.688,3.629,7.719
	C79.025,136.249,78.155,139.044,78.155,142.622z M48.226,162.325c-1.548,0-2.782-3.553-3.701-10.659
	c-0.097-0.638-1.103-9.116-3.001-25.441c-1.442-12.498-3.101-23.305-4.974-32.423c1.112-1.125,2.759-1.69,4.938-1.69
	c1.887,0,3.629,5.661,5.227,16.984c1.064,7.647,2.082,18.063,3.049,31.246c0.728,9.803,1.089,15.563,1.089,17.278v3.015
	C50.03,161.762,49.16,162.325,48.226,162.325z M28.998,115.099c-0.775-5.871-2.3-8.797-4.574-8.797
	c-1.066,0-2.323,0.269-3.776,0.807c-1.453,0.54-2.54,1.164-3.268,1.9c0.339,3.223,0.678,6.445,1.017,9.681
	c0.484,3.946,1.064,7.107,1.743,9.448c2.953-1.997,5.032-3.812,6.244-5.43C28.125,120.516,28.998,117.978,28.998,115.099z
	 M36.476,115.05c0,4.901-1.718,9.19-5.155,12.867c-2.323,2.499-6.171,5.27-11.545,8.307c0.678,10.637,2.082,19.902,4.212,27.793
	c-1.306,1.372-2.542,2.059-3.704,2.059c-1.209,0-2.312-0.454-3.304-1.36c-0.992-0.906-1.634-1.973-1.923-3.197
	c-0.775-3.089-1.309-6.863-1.598-11.324c-0.194-3.823-0.389-7.645-0.581-11.468c-0.097-1.912-0.8-4.411-2.106-7.501
	c-0.05-0.05,0.158-0.698,0.617-1.947c0.461-1.25,0.689-2.048,0.689-2.392c0-1.763-0.242-4.264-0.725-7.498
	c-0.534-3.479-0.848-6.004-0.942-7.574c-1.017-1.616-2.011-2.425-2.979-2.425c1.403-2.402,2.106-4.339,2.106-5.808
	c0-1.374-0.436-2.893-1.308-4.558c1.356-1.374,2.736-2.061,4.14-2.061c1.548,0,2.893,0.701,4.029,2.097
	c1.139,1.396,2.021,2.095,2.651,2.095c0.483,0,0.956-0.135,1.417-0.404c0.458-0.269,0.954-0.405,1.487-0.405
	c4.212,0,7.686,1.385,10.42,4.154C35.108,107.27,36.476,110.786,36.476,115.05z"/>
<path fill="#FFFFFF" d="M587.012,154.956c-1.161,1.568-2.396,2.303-3.704,2.205c-4.404-0.246-6.607-6.078-6.607-17.499
	c0-2.597,0.122-6.481,0.364-11.654c0.241-5.17,0.363-9.055,0.363-11.653c0-7.205-0.822-11.959-2.47-14.264
	c-0.194-0.047-0.387-0.072-0.581-0.072c-2.518,0-5.421,2.671-8.714,8.013c-3.048,4.951-4.621,8.874-4.718,11.765
	c-0.098,3.431-0.145,6.863-0.145,10.293c0,3.236,0.095,6.741,0.289,10.515v6.764c0,1.862-0.122,3.162-0.364,3.896
	c-0.483,0-1.197,0.061-2.14,0.185c-0.944,0.122-1.659,0.184-2.143,0.184c-0.92,0-1.839-0.122-2.759-0.368
	c-0.339-0.784-0.486-2.818-0.437-6.102c0.194-10,0.289-17.204,0.289-21.615c0-3.776-0.628-9.536-1.887-17.278
	c-1.209-7.55-1.792-13.21-1.742-16.984h5.299c1.356,0.244,2.326,2.23,2.906,5.955c0.823,5.245,1.379,8.259,1.67,9.043
	c0.92-0.687,2.154-2.131,3.702-4.339c1.405-2.009,2.712-3.38,3.923-4.117c2.129-1.322,4.938-1.984,8.422-1.984
	c5.519,0,8.325,2.942,8.423,8.822l0.363,23.307C584.761,138.021,585.559,147.014,587.012,154.956 M541.775,118.193
	c-0.822-3.433-2.299-7.057-4.43-10.88c-3.001-5.392-6.099-8.088-9.294-8.088c-3.921,0-6.558,1.715-7.914,5.146
	c-0.775,1.961-1.161,4.779-1.161,8.457c0,3.479,0.313,6.126,0.944,7.94h8.784c0.678,0,2.589-0.344,5.737-1.03
	C538.313,118.905,540.759,118.387,541.775,118.193z M549.689,123.854c-6.1,0.54-15.562,1.349-28.391,2.427v5.439
	c0,2.305,1.332,6.104,3.993,11.396c2.954,5.882,5.568,8.824,7.844,8.824c2.612,0,4.574-1.593,5.88-4.779
	c0.92-2.206,1.379-4.289,1.379-6.251c0.05,0,0.411-0.158,1.092-0.477c0.676-0.318,1.331-0.479,1.959-0.479
	c1.453,0,2.542,0.762,3.268,2.28c0.437,0.932,0.653,1.765,0.653,2.5c0,3.283-1.646,6.322-4.938,9.115
	c-2.856,2.452-5.422,3.677-7.697,3.677c-5.276,0-9.851-3.651-13.722-10.953c-2.566-4.804-4.648-10.783-6.246-17.94
	c-1.403-6.224-2.105-11.225-2.105-14.998c0-6.128,0.922-10.612,2.759-13.455c2.47-3.823,6.946-5.735,13.435-5.735
	c2.612,0,5.663,1.813,9.147,5.439c2.421,2.501,4.841,5.688,7.261,9.559c2.954,4.705,4.43,8.334,4.43,10.88V123.854z
	 M502.202,118.193c-0.823-3.433-2.299-7.057-4.43-10.88c-2.998-5.392-6.099-8.088-9.292-8.088c-3.921,0-6.561,1.715-7.916,5.146
	c-0.772,1.961-1.161,4.779-1.161,8.457c0,3.479,0.315,6.126,0.944,7.94h8.786c0.678,0,2.59-0.344,5.735-1.03
	C498.742,118.905,501.188,118.387,502.202,118.193z M510.118,123.854c-6.1,0.54-15.563,1.349-28.393,2.427v5.439
	c0,2.305,1.334,6.104,3.996,11.396c2.951,5.882,5.565,8.824,7.841,8.824c2.615,0,4.574-1.593,5.88-4.779
	c0.92-2.206,1.381-4.289,1.381-6.251c0.048,0,0.411-0.158,1.09-0.477c0.678-0.318,1.33-0.479,1.961-0.479
	c1.451,0,2.54,0.762,3.266,2.28c0.436,0.932,0.655,1.765,0.655,2.5c0,3.283-1.647,6.322-4.94,9.115
	c-2.854,2.452-5.419,3.677-7.694,3.677c-5.276,0-9.851-3.651-13.724-10.953c-2.567-4.804-4.646-10.783-6.243-17.94
	c-1.404-6.224-2.106-11.225-2.106-14.998c0-6.128,0.92-10.612,2.759-13.455c2.468-3.823,6.947-5.735,13.433-5.735
	c2.614,0,5.663,1.813,9.147,5.439c2.423,2.501,4.843,5.688,7.263,9.559c2.951,4.705,4.43,8.334,4.43,10.88V123.854z M478.678,95.254
	c-1.453,0.491-2.737,0.734-3.849,0.734c-0.872,0-1.864-0.244-2.977-0.734c-1.113-0.49-1.816-0.736-2.105-0.736
	c-2.712,0-5.641,3.089-8.786,9.265c-1.937,3.871-3.221,7.034-3.849,9.484c-1.646,6.566-2.468,14.558-2.468,23.97
	c0,6.322,0.361,12.155,1.089,17.497c-0.097,0-0.569,0.196-1.416,0.588c-0.848,0.393-1.659,0.59-2.432,0.59
	c-1.114,0-2.301-0.466-3.56-1.396c-1.403-0.981-2.129-2.012-2.179-3.09c-0.289-7.304-0.847-18.283-1.67-32.938
	c-1.017-14.754-3.195-23.92-6.535-27.497c0.437-0.98,1.187-1.814,2.253-2.501c1.064-0.685,2.129-1.028,3.193-1.028
	c2.226,0,3.921,1.128,5.082,3.383l0.437,6.47c0.194,2.646,0.726,5.073,1.598,7.278c0.92-0.59,2.226-2.206,3.921-4.854
	c2.081-3.283,3.703-5.586,4.865-6.91c2.226-2.597,4.501-4.264,6.824-4.999c0.775-0.247,2.323-0.369,4.646-0.369
	c3.051,0,4.962,0.515,5.737,1.543C476.838,89.396,477.563,91.48,478.678,95.254z M444.114,132.382
	c-0.918,0.834-2.518,1.396-4.791,1.692c-3.534,0.44-5.568,0.734-6.099,0.882c-2.276,0.587-3.971,1.668-5.083,3.233
	c-0.339,0.49-1.211,3.408-2.614,8.75c-1.403,5.539-2.734,9.362-3.993,11.471c-2.423,4.021-5.496,6.029-9.222,6.029h-3.849
	c-0.775,0-1.792-0.357-3.049-1.066c-1.259-0.71-2.179-1.214-2.762-1.508c-6.582-2.255-12.051-7.328-16.408-15.22
	c-3.873-7.057-5.808-13.97-5.808-20.733c0-4.411,1.548-9.238,4.646-14.483c2.807-4.754,6.099-8.675,9.875-11.764
	c4.502-3.677,8.858-5.514,13.068-5.514c0.872,0,1.937,0.169,3.195,0.515l3.049,0.807c0.969,0.197,2.542,2.183,4.721,5.957
	c2.178,3.774,3.268,6.273,3.268,7.498v4.191c-0.631,0.588-1.114,0.942-1.453,1.067c-0.339,0.122-0.967,0.183-1.887,0.183
	l-10.893-14.485c-5.18,0-9.778,3.458-13.796,10.368c-3.484,5.979-5.227,11.518-5.227,16.616c0,6.42,1.598,12.768,4.793,19.043
	c3.968,7.842,9.17,11.763,15.61,11.763c2.129,0,4.26-2.229,6.389-6.689c1.792-3.773,2.687-6.569,2.687-8.382v-3.457
	c-0.437-0.146-0.967-0.22-1.596-0.22c-0.922,0-2.3,0.233-4.14,0.698c-1.84,0.466-3.098,0.699-3.776,0.699
	c-2.322,0-4.526-1.054-6.607-3.162c0-1.177,0.726-2.23,2.179-3.161c6.341-1.324,14.279-2.818,23.815-4.485
	c1.548-0.294,3.535-0.784,5.955-1.472c2.662-0.782,4.356-1.175,5.082-1.175c1.695,0,3.268,0.734,4.719,2.205V132.382z"/>
<path fill-rule="evenodd" clip-rule="evenodd" fill="#156B37" d="M339.122,19.533c-11.446,0.635-7.543,18.13,2.635,18.494
	C352.414,38.407,350.073,18.925,339.122,19.533"/>
<path fill-rule="evenodd" clip-rule="evenodd" fill="#54AE47" d="M197.101,168.815c-6.757,1.851-4.612,16.358,3.677,14.688
	C207.507,182.147,206,166.381,197.101,168.815"/>
<path fill-rule="evenodd" clip-rule="evenodd" fill="#54AE47" d="M427.261,85.77c6.162-13.909-10.057-18.056-13.914-13.084
	C409.623,77.492,414.052,90.364,427.261,85.77"/>
<path fill-rule="evenodd" clip-rule="evenodd" fill="#50AD47" d="M249.903,57.222c-0.009,8.495-2.752,16.662-8.181,21.728
	c-6.146,5.735-14.711,2.547-17.125-4.757l-1.921-0.05c-1.281,8.881-1.369,12.569,4.379,18.372c2.965,2.082,5.727,4.269,9.064,6.239
	c-0.479-1.101,0.693,0.059-0.669-1.487c13.85,1.04,10.081-25.737,28.878-24.855c8.252,0.386,10.912,5.656,13.423,6.257
	c0.49,0.466,0.262,0.574,1.474,0.212l1.019-0.465c0.194-0.083,0.382-0.183,0.563-0.294c-1.094-0.773-0.407-0.206-0.646-1.408
	c0.504-1.173-0.244-0.949,0.954-0.759c-0.294-1.2-0.03-0.21-0.43-1.13c-2.23-5.164-0.876-3.932-1.875-8.739l0.68,0.154
	c0.077-2.954-0.947-2.789-0.228-6.206c0.705-3.344,1.159-4.224,2.915-6.235c-2.041,0.177-2.587-1.146-4.366-2.752
	c-4.194-3.788-9.848-8.396-15.626-9.95c-4.302-1.159-8.171-0.176-10.234,3.148C249.494,48.205,250.313,53.168,249.903,57.222"/>
<path fill-rule="evenodd" clip-rule="evenodd" fill="#176B37" d="M222.82,112.207c-5.939-1.015-9.896,4-10.748,4.602
	c-1.519,3.771-2.513,5.672-1.842,9.746c0.628,3.808,1.699,4.605,3.327,7.25c1.871,0.434,0.646,0.671,1.817,0.02
	c-0.771-7.66,7.886-9.685,13.394-3.435c5.141,5.837,4.847,14.135,5.541,15.45c-0.612,4.007-0.407,7.285-2.434,11.4
	c-0.541,1.097-1.768,2.793-2.68,3.828c-1.935,2.199-1.853,2.402-3.517,2.99c-1.324,2.122-3.57,3.188-2.768,6.86
	c0.391,1.792,2.346,4.344,3.729,5.907c2.348,2.66,7.6,8.099,11.213,9.17l2.456,0.85c-6.192-8.271-6.054-16.948-1.367-26.486
	c0.877,2.167-0.145,5.1,1.566,7.215c-0.466,2.104,2.379,5.465,3.993,6.997c5.86,5.567,15.417,5.443,12.906,12.094
	c-1.451,3.835-4.393,3.39-7.141,4.732l4.578,1.225c2.35,0.999,6.576,0.348,8.621-0.188c3.55-0.927,4.009-1.826,6.962-3.941
	c1.58-2.757,2.364-2.979,2.956-6.685c0.375-2.361,0.075-4.279-0.667-6.04c-1.051-2.497-4.707-7.369-8.671-7.947
	c-0.404-0.559-0.034-0.204-0.818-0.803c-0.041-0.031-0.554-0.377-0.637-0.425c-0.701-0.404-0.965-0.452-1.774-0.674
	c-4.19-0.96-8.477-2.612-11.938-5.046c-3.871-2.723-4.072-4.669-1.788-9.414c1.338-0.958,3.984-3.582,5.476-4.653
	c2.047-1.466,4.255-2.605,5.392-5.154C263.021,130.301,239.196,114.051,222.82,112.207"/>
<path fill-rule="evenodd" clip-rule="evenodd" fill="#8BC16C" d="M241.936,111.954c4.059-0.87,8.368-2.373,13.836,0.954
	c3.541,2.153,5.157,6.804,6.029,10.37c2.883,11.808-7.441,24.768-5.152,29.379c0.538-2.596,1.58-8.711,2.949-10.849
	c-0.063,0.676-0.843-1.178,0.21,0.409c0.018,0.026,0.658,0.901,0.689,0.942c5.152,6.582,9.586,5.565,15.317,5.333
	c0.418-0.019,1.232,0.029,1.512-0.01c1.539-0.207,0.518,0.141,1.641-0.49l-1.017-0.475c6.72-2.14,12.026-7.106,17.402-9.296
	c1.568-0.638,5.234-1.142,6.665-1.783c1.245-0.703-1.304-1.309,1.424-0.483c-0.351-0.853-0.17-0.371-0.025-1.587
	c0.074-0.648,0.11-0.434,0.138-1.188c0.027-0.815,0.163-1.06-0.459-1.41l-5.66-1.266c-2.949-0.614-14.424,3.372-21.136,1.876
	c-3.935-0.879-6.28-4.22-6.106-7.649c0.232-4.645,4.189-6.949,6.429-8.558l1.046-0.511c1.849-0.823-0.23,0.662,1.797-0.758
	c-1.616-0.085-1.428-0.264-1.95-2.117c-2.011-7.146-7.315-13.749-15.498-13.954c-10.056-0.253-11.708,5.887-17.524,11.089
	L241.936,111.954z"/>
<path fill-rule="evenodd" clip-rule="evenodd" fill="#4EAC47" d="M344.383,90.23c0.17,0.312,0.934-0.748,0.021,3.175
	c-0.705,3.035-2.086,6.831-4.772,8.332c-3.508,1.961-8.183-0.624-9.646-5.037c-1.835-1.448-2.614-4.617-5.548-6.178
	c-7.839-5.887-17.66,2.201-25.488,2.034c-15.22-0.321-16.465-13.468-18.788-15.841c0.239,1.202-0.448,0.635,0.646,1.408
	c-0.181,0.111-0.368,0.21-0.563,0.294l-1.019,0.465c-1.211,0.362-0.983,0.253-1.474-0.212c0.701,1.774,1.464,2.278,2.307,3.627
	c1.819,2.908,3.451,6.863,4.364,10.153c-0.655,0.233,0.716,1.005-1.035-0.093c0.271,1.241,8.31,11.154-3.925,22.548
	c-2.027,1.42,0.052-0.065-1.797,0.758l-1.046,0.511c3.18,0.224,1.074,1.522,3.95,5.875c1.469,2.224,4.355,3.914,7.335,2.996
	c5.575-1.715,3.702-9.848,3.695-14.621c-0.018-17.271,9.389-18.275,20.803-8.026c7.88,7.075,17.132,19.041,25.454,14.227
	c7.729-4.47,9.546-17.789,8.351-26.679l-1.094-3.866C344.744,88.33,345.208,88.174,344.383,90.23"/>
<path fill-rule="evenodd" clip-rule="evenodd" fill="#B5D5A1" d="M278.966,147.993c-1.123,0.631-0.102,0.283-1.641,0.49
	c-0.28,0.039-1.094-0.009-1.512,0.01c-5.731,0.232-10.165,1.249-15.317-5.333c-0.031-0.041-0.671-0.916-0.689-0.942
	c-1.053-1.587-0.273,0.267-0.21-0.409c-1.369,2.138-2.411,8.253-2.949,10.849c-1.58,4.113,0.752,8.529,3.152,11.661l1.015,1.602
	c0.809,0.222,1.073,0.27,1.774,0.674c0.083,0.048,0.597,0.394,0.637,0.425c0.784,0.599,0.414,0.244,0.818,0.803
	c3.964,0.578,7.62,5.45,8.671,7.947c0.741,1.761,1.042,3.679,0.667,6.04c-0.592,3.706-1.376,3.928-2.956,6.685
	c2.072-0.614,2.083-1.742,7.231-2.214c2.445-0.225,5.446-0.692,7.322,0.953c0.097,0.086,0.192,0.201,0.275,0.285l0.531,0.623
	l0.269-1.414c11.642,2.356,8.933-5.643,2.049-11.044c-4.786-3.754-7.948-4.181-14.221-5.778c-6.752,2.427-14.569-8.675-6.414-15.423
	c5.451-4.511,15.19-3.401,21.303,1.613c4.997,4.097,11.26,10.664,19.642,10.172c7.773-0.459,12.016-7.34,12.781-16.607
	c-1.426-3.001-1.918-4.538-7.493-5.702c-5.037-1.364-4.237,9.646-13.918,8.64c-3.107-0.323-7.826-2.244-10.951-3.214
	C284.464,148.027,282.664,148.271,278.966,147.993"/>
<path fill-rule="evenodd" clip-rule="evenodd" fill="#50AD47" d="M273.884,169.904c6.273,1.598,9.435,2.024,14.221,5.778
	c6.883,5.401,9.593,13.4-2.049,11.044l-0.269,1.414c2.703,3.594,3.207,6.224,8.228,10.368c2.004,1.656,4.004,2.772,6.477,3.979
	c1.964,0.958,6.102,2.165,8.099,0.951c-2.009-0.504-4.944-0.391-7.484-1.288c2.418-2.368,4.018-1.954,6.653-7.631
	c1.746-3.763,2.948-7.632,5.875-9.354c7.751-4.556,13.19,5.469,12.659,10.772l3.647-4.502c1.857-3.851,0.635-4.521,3.279-6.11
	c-3.066-1.446,0.251-2.456-2.495-9.927c-2.843-7.735-12.117-11.041-15.514-2.576c-1.945,4.843,0.349,8.625-3.636,11.01
	c-4.521-0.615-6.176-4.454-8.013-6.812C296.554,168.026,279.832,161.599,273.884,169.904"/>
<path fill-rule="evenodd" clip-rule="evenodd" fill="#BAD8A6" d="M236.121,98.754c-3.338-1.97-6.1-4.158-9.064-6.239l0.545,1.482
	c1.317,3.774-0.332,7.941-4.396,7.078c-5.225-1.107-7.753-9.453-11.875-5.146c-3.238,3.383-2.493,15.979,1.281,19.441
	c-0.185-3.299-0.642-6.513,3.03-10.566c2.065-2.28,5.347-3.564,9.177-2.445c9.154,2.676,6.549,11.561,16.358,10.097l0.757-0.502
	l2.556-2.031c5.816-5.202,7.469-11.342,17.524-11.089c8.183,0.206,13.487,6.809,15.498,13.954c0.522,1.854,0.334,2.032,1.95,2.117
	c12.234-11.394,4.196-21.307,3.925-22.548c-1.869-1.545-2.088-2.578-5.197-4.257C260.87,78.764,260.21,106.709,236.121,98.754"/>
<path fill-rule="evenodd" clip-rule="evenodd" fill="#B5D5A1" d="M341.226,152.33c4.269,1.439,10.021,2.655,13.319,0.938
	l0.516-0.903c-8.165-5.146,2.858-18.991,3.988-21.019c5.598-10.031,2.133-15.161,0.696-23.05
	c-0.992-2.757-6.712-10.016-9.704-12.135l2.904,9.704c2.402,8.571,5.107,30.771-9.152,24.738c-3.347-1.417-8.291-4.891-11.706-3.896
	C325.756,128.55,325.615,144.343,341.226,152.33"/>
<path fill-rule="evenodd" clip-rule="evenodd" fill="#176B37" d="M236.121,98.754c24.089,7.955,24.749-19.99,42.07-10.655
	c3.109,1.679,3.329,2.712,5.197,4.257c1.751,1.098,0.38,0.326,1.035,0.093c-0.913-3.29-2.544-7.245-4.364-10.153
	c-0.843-1.349-1.606-1.853-2.307-3.627c-2.511-0.601-5.17-5.871-13.423-6.257c-18.797-0.881-15.028,25.895-28.878,24.855
	C236.814,98.813,235.642,97.654,236.121,98.754"/>
<path fill-rule="evenodd" clip-rule="evenodd" fill="#B5D5A1" d="M294.977,72.598c-1.34,0.28-2.018,1.211-3.937,1.575
	c-1.634,0.31-3.451,0.082-5.5-0.653c-3.93-1.408-4.714-4.131-6.049-7.279l-0.68-0.154c0.999,4.807-0.355,3.575,1.875,8.739
	c0.4,0.919,0.136-0.07,0.43,1.13c2.44,2.389,3.53,4.526,8.133,6.309c3.973,1.542,8.052,1.589,11.349,0.845
	c9.669-2.183,11.777-9.893,15.766-11.181c1.659-2.622,7.634-4.054,11.661-2.945c7.143,1.964,7.841,4.642,12.558,7.182
	c-0.28-1.724-1.91-5.934-3.973-6.662c-1.453-1.055-1.187-1.232-2.244-2.206c-0.815-0.752-1.264-0.92-2.461-1.672
	C311.426,52.774,297.185,71.535,294.977,72.598"/>
<path fill-rule="evenodd" clip-rule="evenodd" fill="#4EAC47" d="M241.936,111.954l-0.757,0.502l-3.523,3.632
	c-2.314-1.056-4.863-2.263-7.301-3.155l-6.221-1.231c-1.772,0.188-0.475-0.07-1.313,0.506c16.376,1.845,40.202,18.095,35.137,29.445
	c-1.137,2.549-3.344,3.688-5.392,5.154c-1.492,1.071-4.138,3.695-5.476,4.653c-2.285,4.745-2.083,6.691,1.788,9.414
	c3.462,2.434,7.749,4.086,11.938,5.046l-1.015-1.602c-2.4-3.132-4.732-7.548-3.152-11.661c-2.289-4.611,8.036-17.571,5.152-29.379
	c-0.873-3.566-2.488-8.217-6.029-10.37C250.303,109.581,245.994,111.083,241.936,111.954"/>
<path fill-rule="evenodd" clip-rule="evenodd" fill="#8BC26A" d="M333.22,185.327c6.024,2.435,16.395-3.314,20.173-12.183
	c1.801-4.226,3.02-5.773,2.689-9.893c-0.01-0.134-0.032-0.314-0.063-0.468l-1.575,5.894c-0.418-0.771-0.036,0.016-0.497-1.056
	c-2.552-5.918-6.011-7.993-13.488-9.405c-1.313,1.229-4.626,0.149-4.294,5.464c0.153,2.443,1.482,4.951,2.255,7.539
	C340.584,178.473,338.544,182.075,333.22,185.327"/>
<path fill-rule="evenodd" clip-rule="evenodd" fill="#156B37" d="M302.017,136.439c-1.431,0.642-5.096,1.146-6.665,1.783
	c-5.376,2.189-10.682,7.156-17.402,9.296l1.017,0.475c3.697,0.278,5.498,0.034,9.869,1.39c3.125,0.97,7.844,2.891,10.951,3.214
	c9.681,1.006,8.881-10.004,13.918-8.64c1.923-1.066,1.521-0.352,5.27,0.784l-1.372-2.232c-0.49-0.521-0.984-0.924-1.529-1.381
	C311.021,136.898,306.873,137.065,302.017,136.439"/>
<path fill-rule="evenodd" clip-rule="evenodd" fill="#54AE47" d="M354.545,153.267l1.878,1.133c0.394-2.237,0.698-1.614,2.394-2.708
	c0.895-0.578,2.059-1.584,2.807-2.365c1.952-2.048,3.529-4.812,4.639-7.618c4.075-10.332,0.531-14.489,2.136-18.693
	c-0.124,0.098-0.33,0.012-0.432,0.179c-1.236,2.027,0.538-0.63-0.782,0.227c-1.084-4.239-3.432-9.453-5.76-13.1l-1.679-2.025
	c1.437,7.889,4.901,13.019-0.696,23.05c-1.13,2.027-12.153,15.873-3.988,21.019L354.545,153.267z"/>
<path fill-rule="evenodd" clip-rule="evenodd" fill="#8AC16B" d="M213.557,133.804c0.908,1.911,1.724,1.891,3.392,3.066
	c7.562,5.324,14.87,18.517,8.729,27.188c1.664-0.588,1.582-0.791,3.517-2.99c0.913-1.035,2.14-2.731,2.68-3.828
	c2.027-4.115,1.821-7.394,2.434-11.4c-0.694-1.315-0.4-9.613-5.541-15.45c-5.507-6.25-14.165-4.226-13.394,3.435
	C214.203,134.475,215.428,134.238,213.557,133.804"/>
<path fill-rule="evenodd" clip-rule="evenodd" fill="#4EAC47" d="M237.852,185.996c0.917,1.458,1.417,1.501,3.604,2.443
	c1.542,0.664,2.644,1.299,4.303,1.918c2.341,0.875,6.576,3.322,9.084,2.265l-4.578-1.225c2.748-1.343,5.69-0.897,7.141-4.732
	c2.511-6.65-7.046-6.526-12.906-12.094c-1.613-1.532-4.458-4.893-3.993-6.997c-1.711-2.115-0.689-5.048-1.566-7.215
	c-4.687,9.538-4.825,18.216,1.367,26.486L237.852,185.996z"/>
<path fill-rule="evenodd" clip-rule="evenodd" fill="#176B37" d="M308.59,203.439c4.488,1.182,15.896-3.039,17.703-7.5
	c0.531-5.304-4.908-15.328-12.659-10.772c-2.927,1.722-4.129,5.591-5.875,9.354c-2.636,5.677-4.235,5.263-6.653,7.631
	C303.646,203.048,306.581,202.935,308.59,203.439"/>
<path fill-rule="evenodd" clip-rule="evenodd" fill="#50AD47" d="M371.089,112.774c2.063-9.281,1.159-17.615-0.739-25.106
	c-1.419-5.6-6.021-17.215-9.979-20.456c0.3,4.632,2.523,5.1-1.898,13.394c-6.671,12.508,10.307,12.356,12.205,30.304
	L371.089,112.774z"/>
<path fill-rule="evenodd" clip-rule="evenodd" fill="#E8F0E1" d="M244.606,59.541c-0.542,2.904-1.286,6.32-3.177,7.859
	c-6.275,6.732-12.04-1.198-12.942-1.9c-0.138,3.186,1.317,3.507-0.696,6.874l-4.884-1.478c-0.836,2.757-0.047,1.292-1.557,1.981
	l1.326,1.266l1.921,0.05c2.414,7.304,10.978,10.492,17.125,4.757c5.428-5.066,8.172-13.233,8.181-21.728l-2.518,2.391
	c-0.759,0.917-0.074,0.764-0.809,3.245L244.606,59.541z"/>
<path fill-rule="evenodd" clip-rule="evenodd" fill="#8AC16B" d="M294.977,72.598c2.208-1.063,16.449-19.823,36.927-6.972
	c1.197,0.752,1.646,0.92,2.461,1.672c1.058,0.974,0.791,1.15,2.244,2.206c-0.701-2.05-2.328-3.638-3.907-5.372
	c-4.617-5.076-11.909-10.393-18.987-12.277c-9.604-2.561-11.893,6.664-14.566,13.689C297.684,69.393,296.826,69.764,294.977,72.598"
	/>
<path fill-rule="evenodd" clip-rule="evenodd" fill="#176B37" d="M230.074,50.467c-1.442,4.404,0.554,7.537,2.563,10.192
	c1.69,2.237,5.562,6.713,8.793,6.741c1.892-1.539,2.635-4.956,3.177-7.859c-0.255-0.685-0.441-3.722-0.985-5.243
	c-0.678-1.887-1.487-3.284-3.144-4.705C236.776,46.413,231.602,47.466,230.074,50.467"/>
<path fill-rule="evenodd" clip-rule="evenodd" fill="#8BC16C" d="M212.612,115.371l-0.54,1.438
	c0.852-0.602,4.809-5.616,10.748-4.602c0.838-0.576-0.459-0.318,1.313-0.506l6.221,1.231c2.438,0.893,4.987,2.1,7.301,3.155
	l3.523-3.632c-9.81,1.464-7.204-7.421-16.358-10.097c-3.831-1.119-7.112,0.165-9.177,2.445
	C211.971,108.858,212.427,112.072,212.612,115.371"/>
<path fill-rule="evenodd" clip-rule="evenodd" fill="#88C064" d="M297.434,130.504l5.66,1.266c0.622,0.351,0.486,0.595,0.459,1.41
	c-0.027,0.755-0.063,0.54-0.138,1.188c-0.145,1.216-0.325,0.734,0.025,1.587c-2.728-0.825-0.179-0.22-1.424,0.483
	c4.856,0.626,9.005,0.459,14.056,4.688c0.545,0.457,1.039,0.859,1.529,1.381l1.372,2.232c-3.749-1.136-3.347-1.851-5.27-0.784
	c5.575,1.164,6.067,2.701,7.493,5.702C324.494,133.196,303.604,126.649,297.434,130.504"/>
<path fill-rule="evenodd" clip-rule="evenodd" fill="#186D37" d="M275.787,29.919c-9.301-0.685-7.304,11.243,1.43,12.065
	C285.886,42.802,284.747,30.579,275.787,29.919"/>
<path fill-rule="evenodd" clip-rule="evenodd" fill="#156B37" d="M340.458,158.216c7.478,1.412,10.937,3.487,13.488,9.405
	c0.461,1.071,0.079,0.284,0.497,1.056l1.575-5.894l0.404-8.384l-1.878-1.133c-3.299,1.718-9.051,0.502-13.319-0.938
	c-15.61-7.986-15.47-23.779-9.139-25.624c3.415-0.994,8.359,2.479,11.706,3.896c14.26,6.033,11.555-16.167,9.152-24.738
	l-2.904-9.704c2.992,2.12,8.712,9.378,9.704,12.135l1.679,2.025c2.328,3.647,4.676,8.861,5.76,13.1
	c1.32-0.856-0.454,1.801,0.782-0.227c0.102-0.167,0.308-0.081,0.432-0.179l2.691-10.241l-0.411-1.864
	c-1.898-17.947-18.876-17.795-12.205-30.304c4.422-8.293,2.198-8.761,1.898-13.394c-0.782-1.724-9.013-12.87-13.116-9.719
	c-3.437,3.959,3.871,9.448,1.35,13.507c-8.533-0.468-15.03-26.523-39.382-33.445c-3.107-0.883-6.955-0.481-6.485,3.647
	c0.351,3.101,4.587,4.85,2.396,7.681c-2.022,1.842-11.5-2.701-18.447,1.162c-0.83,0.461-3.654,2.117-4.508,3.755
	c-1.756,2.011-2.21,2.891-2.915,6.235c-0.719,3.417,0.305,3.252,0.228,6.206c1.335,3.148,2.12,5.871,6.049,7.279
	c2.05,0.734,3.867,0.962,5.5,0.653c1.918-0.364,2.597-1.295,3.937-1.575c1.849-2.834,2.707-3.205,4.171-7.053
	c2.674-7.025,4.963-16.25,14.566-13.689c7.078,1.885,14.37,7.202,18.987,12.277c1.579,1.733,3.206,3.322,3.907,5.372
	c2.063,0.728,3.692,4.938,3.973,6.662c-4.717-2.54-5.415-5.218-12.558-7.182c-4.027-1.109-10.002,0.323-11.661,2.945
	c-3.988,1.288-6.097,8.999-15.766,11.181c-3.297,0.744-7.376,0.696-11.349-0.845c-4.603-1.783-5.692-3.92-8.133-6.309
	c-1.198-0.19-0.45-0.414-0.954,0.759c2.323,2.373,3.568,15.52,18.788,15.841c7.828,0.167,17.649-7.92,25.488-2.034
	c2.934,1.562,3.713,4.73,5.548,6.178c1.463,4.414,6.138,6.999,9.646,5.037c2.687-1.5,4.067-5.297,4.772-8.332
	c0.913-3.923,0.149-2.863-0.021-3.175c0.825-2.056,0.361-1.9,0.732-4.151l1.094,3.866c1.195,8.89-0.622,22.209-8.351,26.679
	c-8.322,4.813-17.574-7.152-25.454-14.227c-11.414-10.249-20.821-9.245-20.803,8.026c0.007,4.773,1.88,12.906-3.695,14.621
	c-2.98,0.918-5.866-0.772-7.335-2.996c-2.876-4.353-0.771-5.651-3.95-5.875c-2.239,1.608-6.196,3.913-6.429,8.558
	c-0.174,3.43,2.171,6.771,6.106,7.649c6.711,1.496,18.187-2.49,21.136-1.876c6.171-3.855,27.061,2.691,23.764,19.154
	c-0.766,9.268-5.008,16.148-12.781,16.607c-8.382,0.492-14.646-6.075-19.642-10.172c-6.113-5.015-15.853-6.124-21.303-1.613
	c-8.155,6.748-0.339,17.85,6.414,15.423c5.948-8.305,22.67-1.878,29.678,7.118c1.837,2.357,3.491,6.196,8.013,6.812
	c3.984-2.385,1.69-6.167,3.636-11.01c3.396-8.465,12.671-5.159,15.514,2.576c2.746,7.471-0.571,8.48,2.495,9.927
	c5.324-3.252,7.364-6.854,5.199-14.107c-0.772-2.588-2.102-5.096-2.255-7.539C335.832,158.366,339.145,159.446,340.458,158.216"/>
<path fill-rule="evenodd" clip-rule="evenodd" fill="#156B37" d="M219.991,8.593c-7.315,0.407-4.82,11.584,1.681,11.816
	C228.483,20.652,226.984,8.205,219.991,8.593"/>
<path fill-rule="evenodd" clip-rule="evenodd" fill="#50AD47" d="M228.487,65.5c0.902,0.703,6.667,8.632,12.942,1.9
	c-3.231-0.027-7.103-4.504-8.793-6.741c-2.009-2.655-4.004-5.788-2.563-10.192c-1.996,1.444-2.836,5.523-2.917,7.846
	C227.021,62.146,228.275,62.953,228.487,65.5"/>
<path fill-rule="evenodd" clip-rule="evenodd" fill="#54AE47" d="M219.435,156.775c3.937-8.888-6.424-11.536-8.89-8.361
	C208.165,151.484,210.994,159.708,219.435,156.775"/>
<path fill-rule="evenodd" clip-rule="evenodd" fill="#54AE47" d="M204.448,75.379c-4.318,1.18-2.949,10.449,2.348,9.382
	C211.094,83.896,210.131,73.822,204.448,75.379"/>
<path fill-rule="evenodd" clip-rule="evenodd" fill="#54AE47" d="M349.138,194.221c-6.76,1.849-4.612,16.358,3.677,14.687
	C359.544,207.552,358.034,191.786,349.138,194.221"/>
</svg>
